<svg width="117" height="36" viewBox="0 0 117 36" fill="none" xmlns="http://www.w3.org/2000/svg">
<path d="M50.4561 10.7705H53.2383V23.9999H50.4561V18.5616H44.7896V23.9999H42.0073V10.7705H44.7896V16.1721H50.4561V10.7705Z" fill="white"/>
<path d="M60.7504 24.183C59.7365 24.183 58.8369 23.9907 58.0516 23.6062C57.2664 23.2217 56.6482 22.6571 56.1968 21.9125C55.7517 21.1678 55.5291 20.292 55.5291 19.2849C55.5291 17.7773 56.0113 16.5872 56.9758 15.7144C57.9404 14.8416 59.1986 14.4052 60.7504 14.4052C62.3085 14.4052 63.5698 14.8416 64.5343 15.7144C65.4988 16.5872 65.9811 17.7773 65.9811 19.2849C65.9811 20.7986 65.4988 21.9949 64.5343 22.8738C63.5698 23.7466 62.3085 24.183 60.7504 24.183ZM60.7226 22.0864C61.5016 22.0864 62.1292 21.8301 62.6053 21.3174C63.0875 20.8047 63.3287 20.1272 63.3287 19.2849C63.3287 18.4426 63.0875 17.7651 62.6053 17.2524C62.1292 16.7397 61.5016 16.4834 60.7226 16.4834C59.9745 16.4834 59.3624 16.7428 58.8863 17.2616C58.4164 17.7743 58.1815 18.4487 58.1815 19.2849C58.1815 20.1211 58.4164 20.7986 58.8863 21.3174C59.3624 21.8301 59.9745 22.0864 60.7226 22.0864Z" fill="white"/>
<path d="M74.2907 14.5883H76.9617V23.9999H74.4298L74.3649 22.8646C73.6601 23.7435 72.6492 24.183 71.3323 24.183C70.1884 24.183 69.3105 23.9022 68.6984 23.3407C68.0863 22.7731 67.7803 21.9674 67.7803 20.9237V14.5883H70.4605V20.3561C70.4605 20.942 70.6182 21.3723 70.9335 21.647C71.255 21.9216 71.6692 22.059 72.1762 22.059C72.7945 22.059 73.2984 21.882 73.6879 21.528C74.0836 21.1678 74.2845 20.585 74.2907 19.7793V14.5883Z" fill="white"/>
<path d="M86.6903 14.5883L82.4984 21.9674H86.5605V23.9999H78.7052L82.8786 16.6207H79.0298V14.5883H86.6903Z" fill="white"/>
<path d="M89.8899 13.1783C89.4633 13.1783 89.0985 13.0319 88.7955 12.7389C88.4926 12.4398 88.3411 12.0797 88.3411 11.6586C88.3411 11.2435 88.4926 10.8895 88.7955 10.5966C89.1047 10.2975 89.4695 10.1479 89.8899 10.1479C90.3041 10.1479 90.6627 10.2975 90.9657 10.5966C91.2686 10.8895 91.4201 11.2435 91.4201 11.6586C91.4201 12.0797 91.2686 12.4398 90.9657 12.7389C90.6627 13.0319 90.3041 13.1783 89.8899 13.1783ZM88.5266 23.9999V14.5883H91.2161V23.9999H88.5266Z" fill="white"/>
<path d="M99.6092 14.4052C100.753 14.4052 101.631 14.689 102.243 15.2566C102.855 15.8181 103.161 16.6207 103.161 17.6644V23.9999H100.481V18.2321C100.481 17.64 100.32 17.2067 99.9987 16.932C99.6834 16.6573 99.2753 16.52 98.7745 16.52C98.484 16.52 98.2181 16.5597 97.977 16.639C97.7358 16.7184 97.5133 16.8435 97.3092 17.0144C97.1052 17.1792 96.9444 17.4142 96.827 17.7194C96.7157 18.0245 96.6569 18.3877 96.6508 18.8088V23.9999H93.9798V14.5883H96.6508V15.632C97.3556 14.8141 98.3418 14.4052 99.6092 14.4052Z" fill="white"/>
<path d="M112.324 14.5883H114.865V23.2949C114.865 24.1921 114.745 24.9734 114.504 25.6387C114.269 26.304 113.925 26.838 113.474 27.2408C113.023 27.6498 112.494 27.9519 111.888 28.1472C111.282 28.3425 110.59 28.4402 109.811 28.4402C107.294 28.4402 105.656 27.4667 104.896 25.5197L107.112 24.5858C107.384 25.2023 107.727 25.657 108.141 25.95C108.556 26.2429 109.078 26.3894 109.709 26.3894C111.36 26.3894 112.185 25.422 112.185 23.4872V22.3885C111.901 22.7731 111.499 23.0844 110.979 23.3224C110.466 23.5543 109.904 23.6703 109.291 23.6703C108.704 23.6703 108.145 23.5604 107.613 23.3407C107.087 23.1149 106.627 22.8036 106.231 22.4069C105.835 22.004 105.52 21.5096 105.285 20.9237C105.056 20.3378 104.942 19.703 104.942 19.0194C104.942 18.3297 105.056 17.6949 105.285 17.1151C105.52 16.5292 105.835 16.0409 106.231 15.6503C106.633 15.2596 107.097 14.9545 107.622 14.7347C108.154 14.515 108.716 14.4052 109.31 14.4052C109.965 14.4052 110.553 14.5364 111.072 14.7988C111.598 15.0552 111.993 15.4 112.259 15.8334L112.324 14.5883ZM108.225 20.8138C108.701 21.296 109.285 21.5371 109.978 21.5371C110.67 21.5371 111.254 21.293 111.731 20.8047C112.207 20.3164 112.445 19.7213 112.445 19.0194C112.445 18.3114 112.207 17.7133 111.731 17.225C111.261 16.7367 110.676 16.4926 109.978 16.4926C109.273 16.4926 108.686 16.7336 108.216 17.2158C107.752 17.6919 107.52 18.2931 107.52 19.0194C107.52 19.7335 107.755 20.3317 108.225 20.8138Z" fill="white"/>
<path d="M7.32205 17.7038V10.4231L15.1946 5.96333C17.8217 7.44993 20.443 8.93653 23.0672 10.4231V21.6982H8.94887H1.63392C1.36661 21.1001 1.09356 20.5106 0.872243 19.8984C-0.036018 17.3851 -0.234341 14.6827 0.2744 12.0846C0.826255 9.25247 2.22026 6.55289 4.45068 4.36671C7.41977 1.45557 11.3086 0 15.1946 0C19.0863 0 22.9752 1.45557 25.9385 4.36671C28.9047 7.28068 30.3879 11.0973 30.3879 14.9111C30.3879 18.7278 28.9047 22.5473 25.9385 25.4556L15.1946 36L4.45068 25.4584C3.99655 25.0127 3.56541 24.5331 3.17164 24.0339H6.35918L15.1946 32.708L24.2628 23.8082C26.7634 21.354 28.0166 18.1298 28.0166 14.9111C28.0166 11.6925 26.7634 8.47109 24.2628 6.0141C21.7594 3.5543 18.4741 2.32722 15.1946 2.32722C11.9151 2.32722 8.6327 3.55712 6.12924 6.01128C4.24373 7.86178 3.07104 10.1354 2.60541 12.5162C2.15703 14.7955 2.35823 17.1678 3.20038 19.3625H20.693V11.7602C18.8564 10.7193 17.0255 9.68124 15.1946 8.64316L9.69905 11.7602V17.7095H7.32205V17.7038Z" fill="white"/>
</svg>
